<svg width="166" height="24" viewBox="0 0 166 24" fill="none" xmlns="http://www.w3.org/2000/svg">
<path d="M0.517045 19V1.54545H12.0739V4.58807H4.20739V8.74716H11.3068V11.7898H4.20739V19H0.517045ZM19.4929 19.2557C18.1463 19.2557 16.9872 18.983 16.0156 18.4375C15.0497 17.8864 14.3054 17.108 13.7827 16.1023C13.2599 15.0909 12.9986 13.8949 12.9986 12.5142C12.9986 11.1676 13.2599 9.9858 13.7827 8.96875C14.3054 7.9517 15.0412 7.15909 15.9901 6.59091C16.9446 6.02273 18.0639 5.73864 19.348 5.73864C20.2116 5.73864 21.0156 5.87784 21.7599 6.15625C22.5099 6.42898 23.1634 6.84091 23.7202 7.39205C24.2827 7.94318 24.7202 8.63636 25.0327 9.47159C25.3452 10.3011 25.5014 11.2727 25.5014 12.3864V13.3835H14.4474V11.1335H22.0838C22.0838 10.6108 21.9702 10.1477 21.7429 9.74432C21.5156 9.34091 21.2003 9.02557 20.7969 8.7983C20.3991 8.56534 19.9361 8.44886 19.4077 8.44886C18.8565 8.44886 18.3679 8.5767 17.9418 8.83239C17.5213 9.08239 17.1918 9.42045 16.9531 9.84659C16.7145 10.267 16.5923 10.7358 16.5866 11.2528V13.392C16.5866 14.0398 16.706 14.5994 16.9446 15.071C17.1889 15.5426 17.5327 15.9062 17.9759 16.1619C18.419 16.4176 18.9446 16.5455 19.5526 16.5455C19.956 16.5455 20.3253 16.4886 20.6605 16.375C20.9957 16.2614 21.2827 16.0909 21.5213 15.8636C21.7599 15.6364 21.9418 15.358 22.0668 15.0284L25.4247 15.25C25.2543 16.0568 24.9048 16.7614 24.3764 17.3636C23.8537 17.9602 23.1776 18.4261 22.348 18.7614C21.5241 19.0909 20.5724 19.2557 19.4929 19.2557ZM31.5014 1.54545V19H27.8707V1.54545H31.5014ZM34.4098 19V5.90909H38.0405V19H34.4098ZM36.2337 4.22159C35.6939 4.22159 35.2308 4.04261 34.8445 3.68466C34.4638 3.32102 34.2734 2.88636 34.2734 2.38068C34.2734 1.88068 34.4638 1.4517 34.8445 1.09375C35.2308 0.730113 35.6939 0.548295 36.2337 0.548295C36.7734 0.548295 37.2337 0.730113 37.6143 1.09375C38.0007 1.4517 38.1939 1.88068 38.1939 2.38068C38.1939 2.88636 38.0007 3.32102 37.6143 3.68466C37.2337 4.04261 36.7734 4.22159 36.2337 4.22159ZM40.9489 23.9091V5.90909H44.5284V8.10795H44.6903C44.8494 7.75568 45.0795 7.39773 45.3807 7.03409C45.6875 6.66477 46.0852 6.35795 46.5739 6.11364C47.0682 5.86364 47.6818 5.73864 48.4148 5.73864C49.3693 5.73864 50.25 5.98864 51.0568 6.48864C51.8636 6.98295 52.5085 7.73011 52.9915 8.73011C53.4744 9.72443 53.7159 10.9716 53.7159 12.4716C53.7159 13.9318 53.4801 15.1648 53.0085 16.1705C52.5426 17.1705 51.9063 17.929 51.0994 18.446C50.2983 18.9574 49.4006 19.2131 48.4062 19.2131C47.7017 19.2131 47.1023 19.0966 46.608 18.8636C46.1193 18.6307 45.7188 18.3381 45.4062 17.9858C45.0938 17.6278 44.8551 17.267 44.6903 16.9034H44.5795V23.9091H40.9489ZM44.5028 12.4545C44.5028 13.233 44.6108 13.9119 44.8267 14.4915C45.0426 15.071 45.3551 15.5227 45.7642 15.8466C46.1733 16.1648 46.6705 16.3239 47.2557 16.3239C47.8466 16.3239 48.3466 16.1619 48.7557 15.8381C49.1648 15.5085 49.4744 15.054 49.6847 14.4744C49.9006 13.8892 50.0085 13.2159 50.0085 12.4545C50.0085 11.6989 49.9034 11.0341 49.6932 10.4602C49.483 9.88636 49.1733 9.4375 48.7642 9.11364C48.3551 8.78977 47.8523 8.62784 47.2557 8.62784C46.6648 8.62784 46.1648 8.78409 45.7557 9.09659C45.3523 9.40909 45.0426 9.85227 44.8267 10.4261C44.6108 11 44.5028 11.6761 44.5028 12.4545ZM62.1023 19.2557C60.7557 19.2557 59.5966 18.983 58.625 18.4375C57.6591 17.8864 56.9148 17.108 56.392 16.1023C55.8693 15.0909 55.608 13.8949 55.608 12.5142C55.608 11.1676 55.8693 9.9858 56.392 8.96875C56.9148 7.9517 57.6506 7.15909 58.5994 6.59091C59.554 6.02273 60.6733 5.73864 61.9574 5.73864C62.821 5.73864 63.625 5.87784 64.3693 6.15625C65.1193 6.42898 65.7727 6.84091 66.3295 7.39205C66.892 7.94318 67.3295 8.63636 67.642 9.47159C67.9545 10.3011 68.1108 11.2727 68.1108 12.3864V13.3835H57.0568V11.1335H64.6932C64.6932 10.6108 64.5795 10.1477 64.3523 9.74432C64.125 9.34091 63.8097 9.02557 63.4062 8.7983C63.0085 8.56534 62.5455 8.44886 62.017 8.44886C61.4659 8.44886 60.9773 8.5767 60.5511 8.83239C60.1307 9.08239 59.8011 9.42045 59.5625 9.84659C59.3239 10.267 59.2017 10.7358 59.196 11.2528V13.392C59.196 14.0398 59.3153 14.5994 59.554 15.071C59.7983 15.5426 60.142 15.9062 60.5852 16.1619C61.0284 16.4176 61.554 16.5455 62.1619 16.5455C62.5653 16.5455 62.9347 16.4886 63.2699 16.375C63.6051 16.2614 63.892 16.0909 64.1307 15.8636C64.3693 15.6364 64.5511 15.358 64.6761 15.0284L68.0341 15.25C67.8636 16.0568 67.5142 16.7614 66.9858 17.3636C66.4631 17.9602 65.7869 18.4261 64.9574 18.7614C64.1335 19.0909 63.1818 19.2557 62.1023 19.2557Z" fill="white"/>
<path d="M85.1477 1.54545V19H81.9602L74.3665 8.0142H74.2386V19H70.5483V1.54545H73.7869L81.321 12.5227H81.4744V1.54545H85.1477ZM94.0433 19.2557C92.7195 19.2557 91.5746 18.9744 90.6087 18.4119C89.6484 17.8437 88.907 17.054 88.3842 16.0426C87.8615 15.0256 87.6001 13.8466 87.6001 12.5057C87.6001 11.1534 87.8615 9.97159 88.3842 8.96023C88.907 7.94318 89.6484 7.15341 90.6087 6.59091C91.5746 6.02273 92.7195 5.73864 94.0433 5.73864C95.3672 5.73864 96.5092 6.02273 97.4695 6.59091C98.4354 7.15341 99.1797 7.94318 99.7024 8.96023C100.225 9.97159 100.487 11.1534 100.487 12.5057C100.487 13.8466 100.225 15.0256 99.7024 16.0426C99.1797 17.054 98.4354 17.8437 97.4695 18.4119C96.5092 18.9744 95.3672 19.2557 94.0433 19.2557ZM94.0604 16.4432C94.6626 16.4432 95.1655 16.2727 95.5689 15.9318C95.9723 15.5852 96.2763 15.1136 96.4808 14.517C96.6911 13.9205 96.7962 13.2415 96.7962 12.4801C96.7962 11.7188 96.6911 11.0398 96.4808 10.4432C96.2763 9.84659 95.9723 9.375 95.5689 9.02841C95.1655 8.68182 94.6626 8.50852 94.0604 8.50852C93.4524 8.50852 92.9411 8.68182 92.5263 9.02841C92.1172 9.375 91.8075 9.84659 91.5973 10.4432C91.3928 11.0398 91.2905 11.7188 91.2905 12.4801C91.2905 13.2415 91.3928 13.9205 91.5973 14.517C91.8075 15.1136 92.1172 15.5852 92.5263 15.9318C92.9411 16.2727 93.4524 16.4432 94.0604 16.4432ZM106.478 11.4318V19H102.847V5.90909H106.308V8.21875H106.461C106.751 7.45739 107.237 6.85511 107.918 6.41193C108.6 5.96307 109.427 5.73864 110.398 5.73864C111.308 5.73864 112.1 5.9375 112.776 6.33523C113.452 6.73295 113.978 7.30114 114.353 8.03977C114.728 8.77273 114.915 9.64773 114.915 10.6648V19H111.285V11.3125C111.29 10.5114 111.086 9.88636 110.671 9.4375C110.256 8.98295 109.685 8.75568 108.958 8.75568C108.469 8.75568 108.038 8.8608 107.663 9.07102C107.293 9.28125 107.004 9.58807 106.793 9.99148C106.589 10.3892 106.484 10.8693 106.478 11.4318ZM121.51 19.2472C120.675 19.2472 119.93 19.1023 119.277 18.8125C118.624 18.517 118.107 18.0824 117.726 17.5085C117.351 16.929 117.163 16.2074 117.163 15.3438C117.163 14.6165 117.297 14.0057 117.564 13.5114C117.831 13.017 118.195 12.6193 118.655 12.3182C119.115 12.017 119.638 11.7898 120.223 11.6364C120.814 11.483 121.433 11.375 122.081 11.3125C122.842 11.233 123.456 11.1591 123.922 11.0909C124.388 11.017 124.726 10.9091 124.936 10.767C125.146 10.625 125.251 10.4148 125.251 10.1364V10.0852C125.251 9.54545 125.081 9.12784 124.74 8.83239C124.405 8.53693 123.928 8.3892 123.308 8.3892C122.655 8.3892 122.135 8.53409 121.749 8.82386C121.362 9.10795 121.107 9.46591 120.982 9.89773L117.624 9.625C117.794 8.82955 118.129 8.14205 118.629 7.5625C119.129 6.97727 119.774 6.52841 120.564 6.21591C121.359 5.89773 122.28 5.73864 123.325 5.73864C124.053 5.73864 124.749 5.82386 125.413 5.99432C126.084 6.16477 126.678 6.42898 127.195 6.78693C127.717 7.14489 128.129 7.60511 128.43 8.16761C128.732 8.72443 128.882 9.39205 128.882 10.1705V19H125.439V17.1847H125.337C125.126 17.5938 124.845 17.9545 124.493 18.267C124.141 18.5739 123.717 18.8153 123.223 18.9915C122.729 19.1619 122.158 19.2472 121.51 19.2472ZM122.55 16.7415C123.084 16.7415 123.555 16.6364 123.964 16.4261C124.374 16.2102 124.695 15.9205 124.928 15.5568C125.161 15.1932 125.277 14.7812 125.277 14.321V12.9318C125.163 13.0057 125.007 13.0739 124.808 13.1364C124.615 13.1932 124.396 13.2472 124.152 13.2983C123.908 13.3437 123.663 13.3864 123.419 13.4261C123.175 13.4602 122.953 13.4915 122.754 13.5199C122.328 13.5824 121.956 13.6818 121.638 13.8182C121.32 13.9545 121.072 14.1392 120.896 14.3722C120.72 14.5994 120.632 14.8835 120.632 15.2244C120.632 15.7188 120.811 16.0966 121.169 16.358C121.533 16.6136 121.993 16.7415 122.55 16.7415ZM138.662 5.90909V8.63636H130.778V5.90909H138.662ZM132.568 2.77273H136.199V14.9773C136.199 15.3125 136.25 15.5739 136.352 15.7614C136.455 15.9432 136.597 16.071 136.778 16.1449C136.966 16.2187 137.182 16.2557 137.426 16.2557C137.597 16.2557 137.767 16.2415 137.938 16.2131C138.108 16.179 138.239 16.1534 138.33 16.1364L138.901 18.8381C138.719 18.8949 138.463 18.9602 138.134 19.0341C137.804 19.1136 137.403 19.1619 136.932 19.179C136.057 19.2131 135.29 19.0966 134.631 18.8295C133.977 18.5625 133.469 18.1477 133.105 17.5852C132.741 17.0227 132.563 16.3125 132.568 15.4545V2.77273ZM146.801 19.2557C145.477 19.2557 144.332 18.9744 143.366 18.4119C142.406 17.8437 141.665 17.054 141.142 16.0426C140.619 15.0256 140.358 13.8466 140.358 12.5057C140.358 11.1534 140.619 9.97159 141.142 8.96023C141.665 7.94318 142.406 7.15341 143.366 6.59091C144.332 6.02273 145.477 5.73864 146.801 5.73864C148.125 5.73864 149.267 6.02273 150.227 6.59091C151.193 7.15341 151.938 7.94318 152.46 8.96023C152.983 9.97159 153.244 11.1534 153.244 12.5057C153.244 13.8466 152.983 15.0256 152.46 16.0426C151.938 17.054 151.193 17.8437 150.227 18.4119C149.267 18.9744 148.125 19.2557 146.801 19.2557ZM146.818 16.4432C147.42 16.4432 147.923 16.2727 148.327 15.9318C148.73 15.5852 149.034 15.1136 149.239 14.517C149.449 13.9205 149.554 13.2415 149.554 12.4801C149.554 11.7188 149.449 11.0398 149.239 10.4432C149.034 9.84659 148.73 9.375 148.327 9.02841C147.923 8.68182 147.42 8.50852 146.818 8.50852C146.21 8.50852 145.699 8.68182 145.284 9.02841C144.875 9.375 144.565 9.84659 144.355 10.4432C144.151 11.0398 144.048 11.7188 144.048 12.4801C144.048 13.2415 144.151 13.9205 144.355 14.517C144.565 15.1136 144.875 15.5852 145.284 15.9318C145.699 16.2727 146.21 16.4432 146.818 16.4432ZM165.602 19V21.7528H154.139V19H165.602Z" fill="#6A6A6A"/>
</svg>
