<svg width="46" height="50" viewBox="0 0 46 50" fill="none" xmlns="http://www.w3.org/2000/svg">
<path d="M45.5 16C45.5 22.8315 43.7175 31.251 40.2341 37.9469C36.7431 44.6573 31.625 49.5 25 49.5C11.469 49.5 0.5 38.5309 0.5 25C0.5 21.6573 1.46349 19.3661 3.01405 17.6248C4.5818 15.8641 6.78198 14.6275 9.33242 13.4647C10.231 13.0551 11.1726 12.6556 12.1394 12.2454C16.5792 10.3619 21.5497 8.25323 25.318 3.89695C32.2252 0.216018 37.2216 0.00539818 40.4724 2.17564C43.7562 4.36794 45.5 9.14211 45.5 16Z" stroke="#ECECEC"/>
<path d="M21 24C21 26.7614 18.7614 29 16 29C13.2386 29 11 26.7614 11 24C11 21.2386 13.2386 19 16 19C18.7614 19 21 21.2386 21 24Z" fill="#E85E39"/>
<path d="M31 34C31 36.7614 28.7614 39 26 39C23.2386 39 21 36.7614 21 34C21 31.2386 23.2386 29 26 29C28.7614 29 31 31.2386 31 34Z" fill="#397FE8"/>
<path d="M37 17C37 19.7614 34.7614 22 32 22C29.2386 22 27 19.7614 27 17C27 14.2386 29.2386 12 32 12C34.7614 12 37 14.2386 37 17Z" fill="#E8AD39"/>
</svg>
